<svg xmlns="http://www.w3.org/2000/svg" viewBox="0 0 120 120" width="120" height="120">
  <!-- Corner ornament - top right — mirrored from TL -->

  <path d="M120,3 L40,3" stroke="#9adfb4" stroke-width="1.0" fill="none" opacity="0.40"/>
  <path d="M117,0 L117,80" stroke="#9adfb4" stroke-width="1.0" fill="none" opacity="0.40"/>

  <path d="M120,10 L60,10 C52,10 46,16 46,24 C46,32 52,36 58,32 C64,28 62,22 56,20"
        stroke="#9adfb4" stroke-width="0.8" fill="none" opacity="0.35"/>
  <path d="M110,0 L110,60 C110,68 104,74 96,74 C88,74 84,68 88,62 C92,56 98,58 100,64"
        stroke="#9adfb4" stroke-width="0.8" fill="none" opacity="0.35"/>

  <path d="M120,17 L72,17 C68,17 64,20 64,24"
        stroke="#9adfb4" stroke-width="0.4" fill="none" opacity="0.22"/>
  <path d="M103,0 L103,48 C103,52 100,56 96,56"
        stroke="#9adfb4" stroke-width="0.4" fill="none" opacity="0.22"/>

  <path d="M92,28 C82,18 68,18 64,28 C60,38 70,48 80,44 C90,40 94,34 92,28"
        stroke="#9adfb4" stroke-width="0.8" fill="none" opacity="0.30"/>
  <path d="M82,32 C78,28 72,28 72,34 C72,40 78,40 80,36"
        stroke="#9adfb4" stroke-width="0.6" fill="none" opacity="0.25"/>
  <circle cx="76" cy="34" r="1.5" fill="#d4a44c" opacity="0.25"/>

  <path d="M108,12 C98,4 90,8 96,18 C102,28 114,22 108,12Z"
        fill="#9adfb4" opacity="0.07"/>
  <path d="M112,18 C106,10 98,12 102,20 C106,28 116,24 112,18Z"
        fill="#9adfb4" opacity="0.06"/>
  <path d="M102,8 C96,2 90,4 94,12 C98,20 108,16 102,8Z"
        fill="#9adfb4" opacity="0.05"/>
  <line x1="108" y1="12" x2="100" y2="16" stroke="#9adfb4" stroke-width="0.3" opacity="0.15"/>
  <line x1="112" y1="18" x2="106" y2="22" stroke="#9adfb4" stroke-width="0.3" opacity="0.12"/>

  <path d="M84,8 C80,4 76,6 78,10 C80,14 86,12 84,8"
        stroke="#9adfb4" stroke-width="0.5" fill="none" opacity="0.20"/>
  <path d="M68,6 C65,3 62,5 64,8"
        stroke="#9adfb4" stroke-width="0.4" fill="none" opacity="0.15"/>
  <path d="M112,36 C116,40 114,44 110,42 C106,40 108,34 112,36"
        stroke="#9adfb4" stroke-width="0.5" fill="none" opacity="0.20"/>
  <path d="M114,52 C117,55 115,58 112,56"
        stroke="#9adfb4" stroke-width="0.4" fill="none" opacity="0.15"/>

  <circle cx="96" cy="3" r="1.0" fill="#9adfb4" opacity="0.22"/>
  <circle cx="76" cy="3" r="0.8" fill="#9adfb4" opacity="0.18"/>
  <circle cx="56" cy="3" r="0.8" fill="#9adfb4" opacity="0.14"/>
  <circle cx="117" cy="24" r="1.0" fill="#9adfb4" opacity="0.22"/>
  <circle cx="117" cy="44" r="0.8" fill="#9adfb4" opacity="0.18"/>
  <circle cx="117" cy="64" r="0.8" fill="#9adfb4" opacity="0.14"/>

  <path d="M110,10 L107,7 L104,10 L107,13 Z" fill="none" stroke="#d4a44c" stroke-width="0.5" opacity="0.25"/>
  <circle cx="107" cy="10" r="0.8" fill="#d4a44c" opacity="0.22"/>

  <circle cx="56" cy="20" r="1.5" fill="#d4a44c" opacity="0.18"/>
  <circle cx="100" cy="64" r="1.5" fill="#d4a44c" opacity="0.18"/>

  <line x1="90" y1="2" x2="90" y2="5" stroke="#9adfb4" stroke-width="0.3" opacity="0.14"/>
  <line x1="70" y1="2" x2="70" y2="5" stroke="#9adfb4" stroke-width="0.3" opacity="0.12"/>
  <line x1="50" y1="2" x2="50" y2="5" stroke="#9adfb4" stroke-width="0.3" opacity="0.10"/>
  <line x1="115" y1="30" x2="118" y2="30" stroke="#9adfb4" stroke-width="0.3" opacity="0.14"/>
  <line x1="115" y1="50" x2="118" y2="50" stroke="#9adfb4" stroke-width="0.3" opacity="0.12"/>
  <line x1="115" y1="70" x2="118" y2="70" stroke="#9adfb4" stroke-width="0.3" opacity="0.10"/>
</svg>
