<svg xmlns="http://www.w3.org/2000/svg" viewBox="0 0 120 120" width="120" height="120">
  <!-- Corner ornament - bottom left — mirrored from TL vertically -->

  <path d="M0,117 L80,117" stroke="#9adfb4" stroke-width="1.0" fill="none" opacity="0.40"/>
  <path d="M3,120 L3,40" stroke="#9adfb4" stroke-width="1.0" fill="none" opacity="0.40"/>

  <path d="M0,110 L60,110 C68,110 74,104 74,96 C74,88 68,84 62,88 C56,92 58,98 64,100"
        stroke="#9adfb4" stroke-width="0.8" fill="none" opacity="0.35"/>
  <path d="M10,120 L10,60 C10,52 16,46 24,46 C32,46 36,52 32,58 C28,64 22,62 20,56"
        stroke="#9adfb4" stroke-width="0.8" fill="none" opacity="0.35"/>

  <path d="M0,103 L48,103 C52,103 56,100 56,96"
        stroke="#9adfb4" stroke-width="0.4" fill="none" opacity="0.22"/>
  <path d="M17,120 L17,72 C17,68 20,64 24,64"
        stroke="#9adfb4" stroke-width="0.4" fill="none" opacity="0.22"/>

  <path d="M28,92 C38,102 52,102 56,92 C60,82 50,72 40,76 C30,80 26,86 28,92"
        stroke="#9adfb4" stroke-width="0.8" fill="none" opacity="0.30"/>
  <path d="M38,88 C42,92 48,92 48,86 C48,80 42,80 40,84"
        stroke="#9adfb4" stroke-width="0.6" fill="none" opacity="0.25"/>
  <circle cx="44" cy="86" r="1.5" fill="#d4a44c" opacity="0.25"/>

  <path d="M12,108 C22,116 30,112 24,102 C18,92 6,98 12,108Z"
        fill="#9adfb4" opacity="0.07"/>
  <path d="M8,102 C14,110 22,108 18,100 C14,92 4,96 8,102Z"
        fill="#9adfb4" opacity="0.06"/>
  <path d="M18,112 C24,118 30,116 26,108 C22,100 12,104 18,112Z"
        fill="#9adfb4" opacity="0.05"/>
  <line x1="12" y1="108" x2="20" y2="104" stroke="#9adfb4" stroke-width="0.3" opacity="0.15"/>

  <path d="M36,112 C40,116 44,114 42,110 C40,106 34,108 36,112"
        stroke="#9adfb4" stroke-width="0.5" fill="none" opacity="0.20"/>
  <path d="M52,114 C55,117 58,115 56,112"
        stroke="#9adfb4" stroke-width="0.4" fill="none" opacity="0.15"/>
  <path d="M8,84 C4,80 6,76 10,78 C14,80 12,86 8,84"
        stroke="#9adfb4" stroke-width="0.5" fill="none" opacity="0.20"/>
  <path d="M6,68 C3,65 5,62 8,64"
        stroke="#9adfb4" stroke-width="0.4" fill="none" opacity="0.15"/>

  <circle cx="24" cy="117" r="1.0" fill="#9adfb4" opacity="0.22"/>
  <circle cx="44" cy="117" r="0.8" fill="#9adfb4" opacity="0.18"/>
  <circle cx="64" cy="117" r="0.8" fill="#9adfb4" opacity="0.14"/>
  <circle cx="3" cy="96" r="1.0" fill="#9adfb4" opacity="0.22"/>
  <circle cx="3" cy="76" r="0.8" fill="#9adfb4" opacity="0.18"/>
  <circle cx="3" cy="56" r="0.8" fill="#9adfb4" opacity="0.14"/>

  <path d="M10,110 L13,107 L16,110 L13,113 Z" fill="none" stroke="#d4a44c" stroke-width="0.5" opacity="0.25"/>
  <circle cx="13" cy="110" r="0.8" fill="#d4a44c" opacity="0.22"/>

  <circle cx="64" cy="100" r="1.5" fill="#d4a44c" opacity="0.18"/>
  <circle cx="20" cy="56" r="1.5" fill="#d4a44c" opacity="0.18"/>

  <line x1="30" y1="115" x2="30" y2="118" stroke="#9adfb4" stroke-width="0.3" opacity="0.14"/>
  <line x1="50" y1="115" x2="50" y2="118" stroke="#9adfb4" stroke-width="0.3" opacity="0.12"/>
  <line x1="70" y1="115" x2="70" y2="118" stroke="#9adfb4" stroke-width="0.3" opacity="0.10"/>
  <line x1="2" y1="90" x2="5" y2="90" stroke="#9adfb4" stroke-width="0.3" opacity="0.14"/>
  <line x1="2" y1="70" x2="5" y2="70" stroke="#9adfb4" stroke-width="0.3" opacity="0.12"/>
  <line x1="2" y1="50" x2="5" y2="50" stroke="#9adfb4" stroke-width="0.3" opacity="0.10"/>
</svg>
